<svg height="512pt" viewBox="0 0 512 512" width="512pt" xmlns="http://www.w3.org/2000/svg"><path d="m251.667969 315.667969h190v175h-190zm0 0" fill="#8d9ca8"/><path d="m379.667969 273h104.667969v217.667969h-104.667969zm0 0" fill="#c5d3dd"/><path d="m115.335938 340.308594h177v150.359375h-177zm0 0" fill="#afbbc4"/><path d="m27.667969 294.332031h126v196.332031h-126zm0 0" fill="#e8f0f3"/><path d="m271 0h-15l-10.667969 85.332031h25.667969zm0 0" fill="#12b0ff"/><path d="m241 0h15v85.332031h-15zm0 0" fill="#36cff5"/><path d="m313.308594 491.667969-22.0625-293.335938h-35.246094l-10.667969 164.332031 10.667969 129.003907zm0 0" fill="#292929"/><path d="m198.691406 491.667969h57.308594v-293.335938h-35.246094zm0 0" fill="#4f4f4f"/><path d="m308.335938 59.667969h-52.335938l-21.332031 115.332031h73.667969zm0 0" fill="#292929"/><path d="m203.667969 59.667969h52.332031v115.332031h-52.332031zm0 0" fill="#4f4f4f"/><path d="m256 129.332031-21.332031 69.003907 21.332031 56.996093h39.535156l60.800782-45.453125v-80.546875zm0 0" fill="#12b0ff"/><path d="m155.667969 129.332031v80.546875l60.796875 45.453125h39.535156v-126zm0 0" fill="#36cff5"/><path d="m512 482h-256l-10.667969 15 10.667969 15h256zm0 0" fill="#46bf00"/><path d="m0 482h256v30h-256zm0 0" fill="#82d300"/></svg>