<svg height="512pt" viewBox="0 0 512 512" width="512pt" xmlns="http://www.w3.org/2000/svg"><path d="m77.671875 439.894531 12.394531-38.140625c.511719-1.570312 1.34375-1.570312 1.855469 0l14.886719 45.804688h3.28125v-54.210938l-20.371094-62.683594c-.511719-1.570312-1.34375-1.570312-1.855469 0l-22.84375 70.292969zm0 0" fill="#89c947"/><path d="m434.300781 7.730469-128.699219 56.597656c-1.511718.664063-2.746093 2.558594-2.746093 4.207031v35.476563l134.191406-59.011719v-35.476562c0-1.648438-1.234375-2.457032-2.746094-1.792969zm0 0" fill="#368c0e"/><path d="m394.058594 133.378906v329.304688l19.800781-60.933594c.511719-1.566406 1.34375-1.566406 1.855469 0l15.503906 47.710938 5.828125-17.941407v-387.722656l-134.191406 59.011719v27.570312h88.203125c1.648437 0 3 1.351563 3 3zm0 0" fill="#89c947"/><path d="m394.058594 480.460938v20.003906c0 1.648437-1.351563 3-3 3h45.988281v-23.003906zm0 0" fill="#89c947"/><path d="m391.058594 130.378906h-139.980469v101.839844h80.90625c1.648437 0 3 1.351562 3 3v265.246094c0 1.648437-1.351563 3-3 3h59.074219c1.648437 0 3-1.351563 3-3v-367.085938c0-1.648437-1.351563-3-3-3zm0 0" fill="#c6a07d"/><path d="m278.816406 152.5h18.652344v28.988281h-18.652344zm0 0" fill="#fff"/><path d="m316.125 152.5h18.65625v28.988281h-18.65625zm0 0" fill="#fff"/><path d="m353.433594 152.5h18.65625v28.988281h-18.65625zm0 0" fill="#fff"/><path d="m278.816406 203.230469h18.652344v28.984375h-18.652344zm0 0" fill="#fcdb67"/><path d="m316.125 203.230469h18.65625v28.984375h-18.65625zm0 0" fill="#fff"/><path d="m353.433594 203.230469h18.65625v28.984375h-18.65625zm0 0" fill="#fcdb67"/><path d="m353.433594 253.960938h18.65625v28.988281h-18.65625zm0 0" fill="#fff"/><path d="m353.433594 304.6875h18.65625v28.988281h-18.65625zm0 0" fill="#fcdb67"/><path d="m353.433594 355.417969h18.65625v28.988281h-18.65625zm0 0" fill="#fff"/><path d="m353.433594 406.144531h18.65625v28.988281h-18.65625zm0 0" fill="#fcdb67"/><path d="m198.089844 75.574219v-17.5c0-2.75-2.25-5-5-5h-23.921875c-2.75 0-5 2.25-5 5v17.5zm0 0" fill="#c0272d"/><path d="m235.375 99.652344-13.898438-19.976563c-1.570312-2.257812-5.105468-4.101562-7.855468-4.101562h-64.980469c-2.75 0-6.285156 1.847656-7.859375 4.101562l-13.898438 19.976563zm0 0" fill="#ef5050"/><path d="m247.167969 99.652344h-132.078125c-2.75 0-5 2.25-5 5v353.003906l6.484375 19.949219c.507812 1.570312-.421875 2.855469-2.074219 2.855469h-4.410156v18.003906c0 2.75 2.25 5 5 5h83.613281c-1.652344 0-3-1.351563-3-3v-265.246094c0-1.648438 1.347656-3 3-3h53.464844v-127.566406c0-2.75-2.25-5-5-5zm0 0" fill="#c0272d"/><path d="m334.984375 500.464844c0 1.648437-1.351563 3-3 3h-133.28125c-1.652344 0-3-1.351563-3-3v-265.246094c0-1.648438 1.347656-3 3-3h133.28125c1.648437 0 3 1.351562 3 3zm0 0" fill="#fb8276"/><path d="m218.707031 256.03125h18.652344v28.984375h-18.652344zm0 0" fill="#ffc502"/><path d="m256.015625 256.03125h18.652344v28.984375h-18.652344zm0 0" fill="#ffc502"/><path d="m293.324219 256.03125h18.65625v28.984375h-18.65625zm0 0" fill="#ffc502"/><path d="m218.707031 306.757812h18.652344v28.988282h-18.652344zm0 0" fill="#ffc502"/><path d="m256.015625 306.757812h18.652344v28.988282h-18.652344zm0 0" fill="#ffc502"/><path d="m293.324219 306.757812h18.65625v28.988282h-18.65625zm0 0" fill="#ffc502"/><g fill="#fff"><path d="m218.707031 357.488281h18.652344v28.988281h-18.652344zm0 0"/><path d="m256.015625 357.488281h18.652344v28.988281h-18.652344zm0 0"/><path d="m293.324219 357.488281h18.65625v28.988281h-18.65625zm0 0"/><path d="m218.707031 408.21875h18.652344v28.988281h-18.652344zm0 0"/><path d="m256.015625 408.21875h18.652344v28.988281h-18.652344zm0 0"/><path d="m293.324219 408.21875h18.65625v28.988281h-18.65625zm0 0"/></g><path d="m65.414062 477.605469 12.257813-37.710938-20.320313-62.519531c-.507812-1.570312-1.34375-1.570312-1.851562 0l-32.574219 100.230469c-.511719 1.570312.421875 2.855469 2.070313 2.855469h42.492187c-1.652343 0-2.582031-1.285157-2.074219-2.855469zm0 0" fill="#368c0e"/><path d="m77.671875 439.894531-4.984375-15.339843h-32.523438l-8.410156 25.878906h42.492188zm0 0" fill="#89c947"/><path d="m489.074219 477.605469-32.574219-100.230469c-.511719-1.570312-1.347656-1.570312-1.855469 0l-23.425781 72.085938 9.144531 28.144531c.511719 1.570312-.421875 2.855469-2.074219 2.855469h48.710938c1.652344 0 2.585938-1.285157 2.074219-2.855469zm0 0" fill="#368c0e"/><path d="m431.535156 450.433594h48.707032l-8.410157-25.878906h-32.519531l-8.097656 24.902343zm0 0" fill="#89c947"/><path d="m391.28125 480.460938c-1.652344 0-2.585938-1.285157-2.074219-2.855469l24.652344-75.855469c.511719-1.566406 1.34375-1.566406 1.855469 0l24.648437 75.855469c.511719 1.570312-.421875 2.855469-2.074219 2.855469zm0 0" fill="#266d00"/><path d="m48.9375 282.078125c0-1.648437 1.171875-3.675781 2.597656-4.5l9.464844-5.46875c1.429688-.828125 3.765625-.828125 5.195312 0l9.460938 5.46875c1.429688.824219 2.597656 2.851563 2.597656 4.5v10.949219c0 1.648437-1.167968 3.675781-2.597656 4.5l-9.460938 5.472656c-1.429687.824219-3.765624.824219-5.195312 0l-9.464844-5.472656c-1.425781-.824219-2.597656-2.851563-2.597656-4.5zm0 0" fill="#fff"/><path d="m464 92.972656c0-1.652344 1.167969-3.675781 2.597656-4.5l9.460938-5.472656c1.429687-.824219 3.765625-.824219 5.195312 0l9.464844 5.472656c1.425781.824219 2.597656 2.847656 2.597656 4.5v10.945313c0 1.652343-1.171875 3.675781-2.597656 4.503906l-9.464844 5.46875c-1.429687.828125-3.765625.828125-5.195312 0l-9.460938-5.46875c-1.429687-.828125-2.597656-2.851563-2.597656-4.503906zm0 0" fill="#fff"/><path d="m475.183594 327.460938c0-1.652344 1.167968-3.675782 2.597656-4.503907l9.460938-5.46875c1.429687-.824219 3.769531-.824219 5.195312 0l9.464844 5.46875c1.425781.828125 2.597656 2.851563 2.597656 4.503907v10.945312c0 1.648438-1.171875 3.675781-2.597656 4.503906l-9.464844 5.46875c-1.429688.828125-3.765625.828125-5.195312 0l-9.460938-5.46875c-1.429688-.828125-2.597656-2.855468-2.597656-4.503906zm0 0" fill="#fff"/><path d="m87.683594 42.589844c0-1.648438 1.167968-3.675782 2.597656-4.5l9.460938-5.472656c1.429687-.824219 3.769531-.824219 5.195312 0l9.464844 5.472656c1.429687.824218 2.597656 2.851562 2.597656 4.5v10.949218c0 1.648438-1.167969 3.675782-2.597656 4.5l-9.464844 5.472657c-1.425781.824219-3.765625.824219-5.195312 0l-9.460938-5.472657c-1.429688-.824218-2.597656-2.851562-2.597656-4.5zm0 0" fill="#fff"/><path d="m67.488281 480.460938c-1.648437 0-2.582031-1.285157-2.074219-2.855469l24.652344-75.855469c.511719-1.566406 1.34375-1.566406 1.855469 0l24.652344 75.855469c.511719 1.570312-.421875 2.855469-2.074219 2.855469zm0 0" fill="#266d00"/><path d="m504.496094 497h-41.425782v-9.039062h23.929688c3.21875 0 6.101562-1.4375 7.917969-3.933594 1.8125-2.5 2.28125-5.683594 1.285156-8.738282l-32.570313-100.234374c-1.523437-4.6875-5.164062-6.355469-8.0625-6.355469-2.894531 0-6.535156 1.671875-8.058593 6.355469l-2.964844 9.125v-374.65625c0-5.339844-4.054687-9.523438-9.230469-9.523438-1.367187 0-2.726562.292969-4.035156.867188l-128.699219 56.59375c-4.253906 1.871093-7.226562 6.425781-7.226562 11.074218v54.34375h-35.6875v-18.226562c0-6.894532-5.605469-12.5-12.5-12.5h-7.875l-11.660157-16.761719c-2.953124-4.238281-8.847656-7.316406-14.011718-7.316406h-8.03125v-10c0-6.894531-5.605469-12.5-12.5-12.5h-4.460938v-27.660157c0-4.144531-3.355468-7.5-7.5-7.5-4.144531 0-7.5 3.355469-7.5 7.5v27.660157h-4.460937c-6.894531 0-12.5 5.605469-12.5 12.5v10h-8.03125c-5.164063 0-11.058594 3.078125-14.011719 7.320312l-11.660156 16.757813h-7.875c-6.894532 0-12.5 5.605468-12.5 12.5v241.351562l-5.738282-17.664062c-1.527343-4.683594-5.164062-6.355469-8.0625-6.355469-2.894531 0-6.53125 1.671875-8.058593 6.359375l-15.714844 48.347656-.53125-1.636718c-1.523437-4.6875-5.160156-6.355469-8.058594-6.355469-2.898437 0-6.535156 1.671875-8.058593 6.355469l-32.574219 100.230468c-.996094 3.058594-.527344 6.242188 1.289062 8.742188 1.8125 2.496094 4.699219 3.933594 7.914063 3.933594h23.929687v9.039062h-41.425781c-4.144531 0-7.5 3.355469-7.5 7.5s3.355469 7.5 7.5 7.5h497c4.140625 0 7.5-3.355469 7.5-7.5-.003906-4.144531-3.359375-7.5-7.503906-7.5zm-415.707032-144.925781 13.800782 42.460937v15.777344l-3.535156-10.878906c-1.523438-4.6875-5.164063-6.359375-8.0625-6.359375-2.894532 0-6.535157 1.671875-8.058594 6.359375l-5.265625 16.195312-4.765625-14.671875zm-32.363281 46.714843 5.9375 18.265626h-11.875zm-10.808593 33.265626h21.621093l1.953125 6.003906.59375 1.835937-.988281 3.042969h-26.71875zm13.421874 40.90625h-26.71875l4.882813-15.023438h26.71875zm24.457032 24.039062h-19.570313v-9.039062h19.570313zm19.09375 0h-4.097656v-9.039062h4.097656zm-4.09375-24.039062v-7.804688c0-4.140625-3.359375-7.5-7.5-7.5-4.144532 0-7.5 3.359375-7.5 7.5v7.804688h-8.683594l16.183594-49.796876 16.183594 49.796876zm73.171875-412.386719h18.921875v7.5h-18.921875zm-24.777344 23.449219c.316406-.367188 1.339844-.902344 1.746094-.949219l64.910156-.003907c.480469.050782 1.5.585938 1.773437.890626l5.699219 8.191406h-79.785156zm239.667969 377.472656-4.480469 13.789062c-.996094 3.058594-.527344 6.242188 1.285156 8.742188.851563 1.171875 1.945313 2.101562 3.195313 2.765625v9.171875h-44.074219v-18.964844c0-4.144531-3.359375-7.5-7.5-7.5-4.144531 0-7.5 3.355469-7.5 7.5v18.964844h-124.28125v-256.246094h124.28125v202.28125c0 4.140625 3.355469 7.5 7.5 7.5 4.140625 0 7.5-3.359375 7.5-7.5v-206.78125c0-.765625-.085937-1.511719-.242187-2.230469.023437-.253906.039062-.511719.039062-.769531v-28.988281c0-4.144531-3.359375-7.5-7.5-7.5h-18.65625c-4.140625 0-7.5 3.355469-7.5 7.5v21.484375h-3.652344v-21.484375c0-4.144531-3.359375-7.5-7.5-7.5h-18.65625c-4.140625 0-7.5 3.355469-7.5 7.5v21.484375h-11.648437v-30.714844c0-4.140625-3.355469-7.5-7.5-7.5-4.140625 0-7.5 3.359375-7.5 7.5v30.714844h-12.511719v-106.25h-15v106.253906h-14.019531v-106.253906h-15v298.875h.066406v78.625h-70.613281v-8.488282c1.9375-.609374 3.621094-1.789062 4.828125-3.449218 1.8125-2.5 2.28125-5.683594 1.289062-8.738282l-6.117187-18.820312v-349.316406h127.078125v50.847656c0 4.144531 3.359375 7.5 7.5 7.5 4.144531 0 7.5-3.355469 7.5-7.5v-20.121094h126.890625zm-100.242188-236.777344v-13.988281h3.652344v13.984375h-3.652344zm37.308594 0v-13.988281h3.65625v13.984375h-3.65625zm72.210938-100.679688v-9.84375c0-4.144531-3.355469-7.5-7.5-7.5-4.144532 0-7.5 3.355469-7.5 7.5v8.683594h-12.980469v-8.683594c0-4.144531-3.359375-7.5-7.5-7.5-4.144531 0-7.5 3.355469-7.5 7.5v8.683594h-12.984375v-8.683594c0-4.144531-3.355469-7.5-7.5-7.5-4.140625 0-7.5 3.355469-7.5 7.5v8.683594h-14.515625v-15.175781l66.660156-29.316406c3.792969-1.667969 5.515625-6.09375 3.847656-9.886719-1.667969-3.789062-6.09375-5.515625-9.886719-3.84375l-60.621093 26.660156v-20.886718l119.191406-52.414063v20.886719l-26.566406 11.683594c-3.792969 1.664062-5.515625 6.09375-3.847657 9.882812 1.234376 2.8125 3.984376 4.484375 6.867188 4.484375 1.007812 0 2.035156-.207031 3.015625-.636719l20.53125-9.03125v364.769532l-6.703125-20.625c-1.527344-4.683594-5.164062-6.351563-8.058594-6.351563-2.898437 0-6.535156 1.667969-8.0625 6.355469l-5.167968 15.902344v-281.957032c.003906-4.070312-2.328126-7.597656-5.71875-9.339844zm11.449218 371.925782h-5.726562v-8.003906h5.726562zm22.261719 0h-7.261719v-8.003906h7.261719zm-7.261719-23.003906v-7.804688c0-4.140625-3.355468-7.5-7.5-7.5-4.140625 0-7.5 3.359375-7.5 7.5v7.804688h-8.679687l16.179687-49.796876 16.183594 49.796876zm33.285156-74.171876 5.9375 18.265626h-11.871093zm-10.808593 33.265626h21.621093l1.644532 5.066406 1.890625 5.8125h-28.695313zm30.03125 25.878906 4.882812 15.023437h-32.9375l-4.878906-15.023437zm-26.722657 39.066406h-3.523437v-9.039062h3.523437zm0 0"/><path d="m416.320312 145.507812c4.140626 0 7.5-3.359374 7.5-7.5v-23.8125c0-4.144531-3.359374-7.5-7.5-7.5-4.144531 0-7.5 3.355469-7.5 7.5v23.8125c0 4.140626 3.355469 7.5 7.5 7.5zm0 0"/><path d="m416.320312 201.414062c4.140626 0 7.5-3.359374 7.5-7.5v-23.8125c0-4.144531-3.359374-7.5-7.5-7.5-4.144531 0-7.5 3.355469-7.5 7.5v23.8125c0 4.140626 3.355469 7.5 7.5 7.5zm0 0"/><path d="m416.320312 257.316406c4.140626 0 7.5-3.355468 7.5-7.5v-23.8125c0-4.140625-3.359374-7.5-7.5-7.5-4.144531 0-7.5 3.359375-7.5 7.5v23.8125c0 4.144532 3.355469 7.5 7.5 7.5zm0 0"/><path d="m416.320312 313.222656c4.140626 0 7.5-3.355468 7.5-7.5v-23.808594c0-4.144531-3.359374-7.5-7.5-7.5-4.144531 0-7.5 3.355469-7.5 7.5v23.808594c0 4.144532 3.355469 7.5 7.5 7.5zm0 0"/><path d="m416.320312 369.128906c4.140626 0 7.5-3.355468 7.5-7.5v-23.8125c0-4.144531-3.359374-7.5-7.5-7.5-4.144531 0-7.5 3.355469-7.5 7.5v23.8125c0 4.140625 3.355469 7.5 7.5 7.5zm0 0"/><path d="m278.816406 188.988281h18.652344c4.144531 0 7.5-3.355469 7.5-7.5v-28.988281c0-4.140625-3.355469-7.5-7.5-7.5h-18.652344c-4.144531 0-7.5 3.359375-7.5 7.5v28.988281c0 4.144531 3.355469 7.5 7.5 7.5zm7.5-28.988281h3.652344v13.988281h-3.652344zm0 0"/><path d="m316.125 188.988281h18.65625c4.140625 0 7.5-3.355469 7.5-7.5v-28.988281c0-4.140625-3.359375-7.5-7.5-7.5h-18.65625c-4.140625 0-7.5 3.359375-7.5 7.5v28.988281c0 4.144531 3.359375 7.5 7.5 7.5zm7.5-28.988281h3.65625v13.988281h-3.65625zm0 0"/><path d="m353.433594 188.988281h18.65625c4.140625 0 7.5-3.355469 7.5-7.5v-28.988281c0-4.140625-3.359375-7.5-7.5-7.5h-18.65625c-4.140625 0-7.5 3.359375-7.5 7.5v28.988281c0 4.144531 3.359375 7.5 7.5 7.5zm7.5-28.988281h3.65625v13.988281h-3.65625zm0 0"/><path d="m353.433594 239.71875h18.65625c4.140625 0 7.5-3.359375 7.5-7.5v-28.988281c0-4.144531-3.359375-7.5-7.5-7.5h-18.65625c-4.140625 0-7.5 3.355469-7.5 7.5v28.984375c0 4.144531 3.359375 7.503906 7.5 7.503906zm7.5-28.988281h3.65625v13.984375h-3.65625zm0 0"/><path d="m353.433594 290.449219h18.65625c4.140625 0 7.5-3.359375 7.5-7.5v-28.988281c0-4.144532-3.359375-7.5-7.5-7.5h-18.65625c-4.140625 0-7.5 3.355468-7.5 7.5v28.988281c0 4.140625 3.359375 7.5 7.5 7.5zm7.5-28.988281h3.65625v13.988281h-3.65625zm0 0"/><path d="m353.433594 341.175781h18.65625c4.140625 0 7.5-3.355469 7.5-7.5v-28.988281c0-4.140625-3.359375-7.5-7.5-7.5h-18.65625c-4.140625 0-7.5 3.359375-7.5 7.5v28.988281c0 4.144531 3.359375 7.5 7.5 7.5zm7.5-28.988281h3.65625v13.988281h-3.65625zm0 0"/><path d="m353.433594 391.90625h18.65625c4.140625 0 7.5-3.355469 7.5-7.5v-28.988281c0-4.144531-3.359375-7.5-7.5-7.5h-18.65625c-4.140625 0-7.5 3.355469-7.5 7.5v28.988281c0 4.144531 3.359375 7.5 7.5 7.5zm7.5-28.988281h3.65625v13.988281h-3.65625zm0 0"/><path d="m353.433594 442.636719h18.65625c4.140625 0 7.5-3.359375 7.5-7.5v-28.988281c0-4.144532-3.359375-7.5-7.5-7.5h-18.65625c-4.140625 0-7.5 3.355468-7.5 7.5v28.988281c0 4.140625 3.359375 7.5 7.5 7.5zm7.5-28.992188h3.65625v13.988281h-3.65625zm0 0"/><path d="m130.101562 118.464844h15v298.875h-15zm0 0"/><path d="m159.121094 118.464844h15v298.875h-15zm0 0"/><path d="m237.359375 248.53125h-18.652344c-4.144531 0-7.5 3.355469-7.5 7.5v28.984375c0 4.144531 3.355469 7.5 7.5 7.5h18.652344c4.144531 0 7.5-3.355469 7.5-7.5v-28.984375c0-4.144531-3.355469-7.5-7.5-7.5zm-7.5 28.988281h-3.652344v-13.988281h3.652344zm0 0"/><path d="m274.667969 248.53125h-18.652344c-4.144531 0-7.5 3.355469-7.5 7.5v28.984375c0 4.144531 3.355469 7.5 7.5 7.5h18.652344c4.144531 0 7.5-3.355469 7.5-7.5v-28.984375c0-4.144531-3.355469-7.5-7.5-7.5zm-7.5 28.988281h-3.652344v-13.988281h3.652344zm0 0"/><path d="m311.980469 248.53125h-18.65625c-4.140625 0-7.5 3.355469-7.5 7.5v28.984375c0 4.144531 3.359375 7.5 7.5 7.5h18.65625c4.140625 0 7.5-3.355469 7.5-7.5v-28.984375c0-4.144531-3.359375-7.5-7.5-7.5zm-7.5 28.988281h-3.65625v-13.988281h3.65625zm0 0"/><path d="m237.359375 299.257812h-18.652344c-4.144531 0-7.5 3.359376-7.5 7.5v28.988282c0 4.140625 3.355469 7.5 7.5 7.5h18.652344c4.144531 0 7.5-3.359375 7.5-7.5v-28.988282c0-4.140624-3.355469-7.5-7.5-7.5zm-7.5 28.988282h-3.652344v-13.988282h3.652344zm0 0"/><path d="m274.667969 299.257812h-18.652344c-4.144531 0-7.5 3.359376-7.5 7.5v28.988282c0 4.140625 3.355469 7.5 7.5 7.5h18.652344c4.144531 0 7.5-3.359375 7.5-7.5v-28.988282c0-4.140624-3.355469-7.5-7.5-7.5zm-7.5 28.988282h-3.652344v-13.988282h3.652344zm0 0"/><path d="m311.980469 299.257812h-18.65625c-4.140625 0-7.5 3.359376-7.5 7.5v28.988282c0 4.140625 3.359375 7.5 7.5 7.5h18.65625c4.140625 0 7.5-3.359375 7.5-7.5v-28.988282c0-4.140624-3.359375-7.5-7.5-7.5zm-7.5 28.988282h-3.65625v-13.988282h3.65625zm0 0"/><path d="m237.359375 349.988281h-18.652344c-4.144531 0-7.5 3.355469-7.5 7.5v28.988281c0 4.140626 3.355469 7.5 7.5 7.5h18.652344c4.144531 0 7.5-3.359374 7.5-7.5v-28.988281c0-4.144531-3.355469-7.5-7.5-7.5zm-7.5 28.988281h-3.652344v-13.988281h3.652344zm0 0"/><path d="m274.667969 349.988281h-18.652344c-4.144531 0-7.5 3.355469-7.5 7.5v28.988281c0 4.140626 3.355469 7.5 7.5 7.5h18.652344c4.144531 0 7.5-3.359374 7.5-7.5v-28.988281c0-4.144531-3.355469-7.5-7.5-7.5zm-7.5 28.988281h-3.652344v-13.988281h3.652344zm0 0"/><path d="m311.980469 349.988281h-18.65625c-4.140625 0-7.5 3.355469-7.5 7.5v28.988281c0 4.140626 3.359375 7.5 7.5 7.5h18.65625c4.140625 0 7.5-3.359374 7.5-7.5v-28.988281c0-4.144531-3.359375-7.5-7.5-7.5zm-7.5 28.988281h-3.65625v-13.988281h3.65625zm0 0"/><path d="m237.359375 400.71875h-18.652344c-4.144531 0-7.5 3.355469-7.5 7.5v28.988281c0 4.140625 3.355469 7.5 7.5 7.5h18.652344c4.144531 0 7.5-3.359375 7.5-7.5v-28.988281c0-4.144531-3.355469-7.5-7.5-7.5zm-7.5 28.988281h-3.652344v-13.988281h3.652344zm0 0"/><path d="m274.667969 400.71875h-18.652344c-4.144531 0-7.5 3.355469-7.5 7.5v28.988281c0 4.140625 3.355469 7.5 7.5 7.5h18.652344c4.144531 0 7.5-3.359375 7.5-7.5v-28.988281c0-4.144531-3.355469-7.5-7.5-7.5zm-7.5 28.988281h-3.652344v-13.988281h3.652344zm0 0"/><path d="m311.980469 400.71875h-18.65625c-4.140625 0-7.5 3.355469-7.5 7.5v28.988281c0 4.140625 3.359375 7.5 7.5 7.5h18.65625c4.140625 0 7.5-3.359375 7.5-7.5v-28.988281c0-4.144531-3.359375-7.5-7.5-7.5zm-7.5 28.988281h-3.65625v-13.988281h3.65625zm0 0"/><path d="m47.78125 304.019531 9.464844 5.472657c1.839844 1.0625 4.035156 1.625 6.351562 1.625 2.3125 0 4.511719-.5625 6.351563-1.625l9.464843-5.472657c3.734376-2.15625 6.339844-6.679687 6.339844-10.992187v-10.949219c0-4.316406-2.605468-8.835937-6.34375-10.992187l-9.464844-5.472657c-1.839843-1.0625-4.035156-1.625-6.347656-1.625-2.316406 0-4.511718.5625-6.351562 1.625l-9.460938 5.472657c-3.738281 2.15625-6.347656 6.679687-6.347656 10.992187v10.949219c0 4.3125 2.609375 8.835937 6.34375 10.992187zm8.65625-20.613281 7.160156-4.136719 7.15625 4.136719v8.292969l-7.15625 4.140625-7.160156-4.140625zm0 0"/><path d="m462.84375 114.914062 9.460938 5.46875c1.839843 1.066407 4.039062 1.628907 6.351562 1.628907 2.316406 0 4.511719-.5625 6.351562-1.628907l9.464844-5.46875c3.734375-2.160156 6.34375-6.683593 6.34375-10.996093v-10.945313c0-4.316406-2.609375-8.835937-6.34375-10.996094l-9.46875-5.472656c-1.839844-1.0625-4.035156-1.625-6.347656-1.625s-4.507812.5625-6.351562 1.628906l-9.460938 5.46875c-3.738281 2.160157-6.347656 6.679688-6.347656 10.996094v10.945313c.003906 4.3125 2.609375 8.835937 6.347656 10.996093zm8.65625-20.613281 7.15625-4.140625 7.15625 4.140625v8.292969l-7.15625 4.136719-7.15625-4.136719zm0 0"/><path d="m505.65625 316.464844-9.46875-5.472656c-1.839844-1.0625-4.035156-1.625-6.347656-1.625s-4.507813.5625-6.351563 1.628906l-9.460937 5.46875c-3.734375 2.15625-6.347656 6.679687-6.347656 10.996094v10.945312c0 4.3125 2.609374 8.835938 6.34375 10.996094l9.464843 5.46875c1.839844 1.0625 4.035157 1.628906 6.351563 1.628906 2.3125 0 4.511718-.566406 6.351562-1.628906l9.464844-5.472656c3.734375-2.15625 6.339844-6.679688 6.339844-10.992188v-10.945312c0-4.316407-2.605469-8.839844-6.339844-10.996094zm-8.660156 20.613281-7.15625 4.140625-7.15625-4.140625v-8.289063l7.15625-4.140624 7.15625 4.140624zm0 0"/><path d="m86.527344 64.53125 9.460937 5.472656c1.839844 1.0625 4.039063 1.625 6.355469 1.625 2.3125 0 4.511719-.5625 6.351562-1.625l9.460938-5.472656c3.734375-2.160156 6.34375-6.679688 6.34375-10.992188v-10.949218c0-4.3125-2.609375-8.835938-6.34375-10.992188l-9.464844-5.472656c-1.839844-1.0625-4.035156-1.625-6.347656-1.625-2.316406 0-4.511719.5625-6.355469 1.625l-9.457031 5.472656c-3.738281 2.15625-6.347656 6.679688-6.347656 10.992188v10.949218c0 4.3125 2.609375 8.832032 6.34375 10.992188zm8.65625-20.613281 7.15625-4.136719 7.160156 4.136719v8.292969l-7.160156 4.140624-7.15625-4.140624zm0 0"/></svg>